<svg width="64" height="64" viewBox="0 0 64 64" fill="none" xmlns="http://www.w3.org/2000/svg">
<path fill-rule="evenodd" clip-rule="evenodd" d="M33.0851 7.76338C32.4157 7.36777 31.584 7.36777 30.9145 7.76338L7.44786 21.63C6.79834 22.0138 6.39984 22.7122 6.39984 23.4667C6.39984 24.2211 6.79834 24.9195 7.44786 25.3033L30.9145 39.17C31.584 39.5656 32.4157 39.5656 33.0851 39.17L56.5517 25.3033C57.2015 24.9195 57.6 24.2211 57.6 23.4667C57.6 22.7122 57.2015 22.0138 56.5517 21.63L33.0851 7.76338ZM31.9998 34.8554L12.7266 23.4667L31.9998 12.078L51.273 23.4667L31.9998 34.8554ZM9.61844 35.4967C8.60408 34.8973 7.29592 35.2337 6.6965 36.2481C6.09712 37.2624 6.4335 38.5706 7.44786 39.17L30.9145 53.0368C31.584 53.4323 32.4157 53.4323 33.0851 53.0368L56.5517 39.17C57.5663 38.5706 57.9025 37.2624 57.303 36.2481C56.7036 35.2337 55.3954 34.8973 54.3812 35.4967L31.9998 48.7219L9.61844 35.4967Z" fill="black"/>
</svg>
